<svg width="14" height="11" viewBox="0 0 14 11" fill="none" xmlns="http://www.w3.org/2000/svg"><path d="M7.21702 0C5.75598 0 4.40648 0.461954 3.32532 1.24805L3.82667 2.08203C4.75354 1.40812 5.93091 1 7.21702 1C8.51509 1 9.70337 1.41595 10.634 2.10156L11.1407 1.27148C10.0543 0.471101 8.6916 0 7.21702 0ZM1.9546 4.3418L1.09235 4.66016C1.2609 5.21374 1.53967 5.71191 1.85504 6.18359L0.523438 7.64648L1.16702 8.35352L2.47907 6.91211C2.93005 7.396 3.4471 7.79803 4.03824 8.12305L3.34843 9.95508L4.18935 10.3379L4.86671 8.53711C5.46188 8.76083 6.09694 8.884 6.76189 8.92969V10.8984H7.67215V8.92969C8.33712 8.88398 8.97216 8.76093 9.56733 8.53711L10.2447 10.3379L11.0856 9.95508L10.3958 8.12305C10.9869 7.79791 11.504 7.39611 11.955 6.91211L13.267 8.35352L13.9106 7.64648L12.579 6.18359C12.8944 5.71179 13.1731 5.21185 13.3417 4.6582L12.4794 4.3418C11.8496 6.41057 9.75247 8 7.21702 8C4.68147 8 2.58447 6.41053 1.9546 4.3418Z" fill="#7A7A7A"></path></svg>