<svg width="16" height="9" viewBox="0 0 16 9" fill="none" xmlns="http://www.w3.org/2000/svg"><path d="M8.25 0C2.85547 0 0.796875 4.28906 0.796875 4.28906L0.695312 4.5L0.796875 4.71094C0.796875 4.71094 2.85547 9 8.25 9C13.6445 9 15.7031 4.71094 15.7031 4.71094L15.8008 4.5L15.7031 4.28906C15.7031 4.28906 13.6445 0 8.25 0ZM8.25 1C10.1875 1 11.75 2.5625 11.75 4.5C11.75 6.4375 10.1875 8 8.25 8C6.3125 8 4.75 6.4375 4.75 4.5C4.75 2.5625 6.3125 1 8.25 1ZM4.69141 1.77734C4.10938 2.53516 3.75 3.47266 3.75 4.5C3.75 5.52734 4.10938 6.46484 4.69141 7.22266C2.77344 6.26953 1.99219 4.75391 1.86719 4.5C1.99219 4.24609 2.77344 2.73047 4.69141 1.77734ZM11.8086 1.77734C13.7266 2.73047 14.5078 4.24609 14.6328 4.5C14.5078 4.75391 13.7266 6.26953 11.8086 7.22266C12.3906 6.46484 12.75 5.52734 12.75 4.5C12.75 3.47266 12.3906 2.53516 11.8086 1.77734ZM8.25 3C7.42188 3 6.75 3.67188 6.75 4.5C6.75 5.32812 7.42188 6 8.25 6C9.07812 6 9.75 5.32812 9.75 4.5C9.75 3.67188 9.07812 3 8.25 3Z" fill="#A3A3A3"></path></svg>